<svg width="93" height="36" viewBox="0 0 93 36" fill="none" xmlns="http://www.w3.org/2000/svg">
<rect x="1" y="5" width="27" height="27" rx="6" fill="black" stroke="#4FAE59" stroke-width="2"/>
<path d="M14.9367 11.1902L22.625 17.0128L20.7484 18.274C20.5107 18.1308 20.2934 17.9679 20.0732 17.8038L16.0354 14.7479C15.9833 14.7077 15.8804 14.6588 15.8482 14.6082L15.8408 16.4885C15.8711 16.5285 15.9693 16.5706 16.0148 16.6063L16.8922 17.2823L21.7181 20.8958C21.8728 21.0129 22.019 21.1396 22.182 21.2475C22.0202 21.3809 21.8329 21.4956 21.6594 21.6165L20.4117 22.4909C20.3691 22.5231 20.3221 22.5645 20.2718 22.586C20.0606 22.4539 19.8684 22.2976 19.6737 22.1466L16.2968 19.5965C16.1708 19.4977 16.0406 19.3695 15.8973 19.2935C15.8777 19.2832 15.8624 19.2712 15.8459 19.2572L15.8389 19.251C15.8314 19.2912 15.8364 19.3383 15.8364 19.3792L15.8365 24.918C15.8363 25.4357 15.9198 25.4731 15.5058 25.8735L15.0915 26.2615C14.9577 26.383 14.8243 26.5205 14.6738 26.625C14.5483 26.5428 14.4348 26.4367 14.3253 26.338L13.9481 25.9907C13.7144 25.7662 13.556 25.671 13.5559 25.3571L13.5633 19.2882C13.5426 19.3035 13.5271 19.3244 13.5069 19.3404L10.0051 21.9913C9.93616 22.0433 9.25824 22.5717 9.23991 22.5728L8.13829 21.8034C7.88111 21.6211 7.61276 21.4504 7.38269 21.2393C7.48837 21.165 7.5863 21.0814 7.68722 21.0019L13.4297 16.6352C13.5438 16.5516 13.595 16.5677 13.5949 16.4232L13.5884 14.6284C13.5395 14.6821 13.4664 14.7215 13.4093 14.7711L9.33435 17.9299C9.18263 18.0416 9.03237 18.1636 8.86922 18.2608L7.66011 17.4615C7.43938 17.3119 7.20282 17.1698 7 17.0004L14.6813 11L14.9367 11.1902Z" fill="#94E1B4"/>
<path d="M46.2926 26.168C45.1726 26.168 44.1646 25.976 43.2686 25.592C42.3726 25.192 41.6686 24.632 41.1566 23.912C40.6446 23.192 40.3886 22.352 40.3886 21.392H43.3166C43.3806 22.112 43.6606 22.704 44.1566 23.168C44.6686 23.632 45.3806 23.864 46.2926 23.864C47.2366 23.864 47.9726 23.64 48.5006 23.192C49.0286 22.728 49.2926 22.136 49.2926 21.416C49.2926 20.856 49.1246 20.4 48.7886 20.048C48.4686 19.696 48.0606 19.424 47.5646 19.232C47.0846 19.04 46.4126 18.832 45.5486 18.608C44.4606 18.32 43.5726 18.032 42.8846 17.744C42.2126 17.44 41.6366 16.976 41.1566 16.352C40.6766 15.728 40.4366 14.896 40.4366 13.856C40.4366 12.896 40.6766 12.056 41.1566 11.336C41.6366 10.616 42.3086 10.064 43.1726 9.68C44.0366 9.296 45.0366 9.104 46.1726 9.104C47.7886 9.104 49.1086 9.512 50.1326 10.328C51.1726 11.128 51.7486 12.232 51.8606 13.64H48.8366C48.7886 13.032 48.5006 12.512 47.9726 12.08C47.4446 11.648 46.7486 11.432 45.8846 11.432C45.1006 11.432 44.4606 11.632 43.9646 12.032C43.4686 12.432 43.2206 13.008 43.2206 13.76C43.2206 14.272 43.3726 14.696 43.6766 15.032C43.9966 15.352 44.3966 15.608 44.8766 15.8C45.3566 15.992 46.0126 16.2 46.8446 16.424C47.9486 16.728 48.8446 17.032 49.5326 17.336C50.2366 17.64 50.8286 18.112 51.3086 18.752C51.8046 19.376 52.0526 20.216 52.0526 21.272C52.0526 22.12 51.8206 22.92 51.3566 23.672C50.9086 24.424 50.2446 25.032 49.3646 25.496C48.5006 25.944 47.4766 26.168 46.2926 26.168ZM77.4809 9.32L72.5369 26H69.4409L65.9369 13.376L62.2169 26L59.1449 26.024L54.4169 9.32H57.3209L60.7769 22.904L64.5209 9.32H67.5929L71.0729 22.832L74.5529 9.32H77.4809ZM82.9535 11.528V16.424H88.7135V18.656H82.9535V23.768H89.4335V26H80.2175V9.296H89.4335V11.528H82.9535Z" fill="#4FAE59"/>
</svg>
